
<svg width="17px" height="16px" viewBox="0 0 17 16" version="1.1" xmlns="http://www.w3.org/2000/svg" xmlns:xlink="http://www.w3.org/1999/xlink">
    <!-- Generator: Sketch 49.3 (51167) - http://www.bohemiancoding.com/sketch -->
    <desc>Created with Sketch.</desc>
    <defs></defs>
    <g id="Page-1" stroke="none" stroke-width="1" fill="none" fill-rule="evenodd">
        <g id="Wallet-Collapsed" transform="translate(-716.000000, -308.000000)" fill="#FF7E76" fill-rule="nonzero">
            <g id="Group-6" transform="translate(703.000000, 301.000000)">
                <path d="M15.7045455,7 C15.2636317,6.999996 14.9834789,7.30348 14.7808949,7.61875 C14.5783109,7.93402 14.4196804,8.316462 14.5696023,8.7375 L16.3263494,13.59375 C16.270057,13.65843 16.2172597,13.7344906 16.1633523,13.8125 C15.2887944,13.9597328 14.5676805,14.1350604 14.0323153,14.35 C13.7582036,14.460052 13.5280328,14.57539 13.3441051,14.73125 C13.1601774,14.88713 13.0000001,15.11964 13,15.4 C13,17.9377 14.4720986,20.22712 16.6704545,21.6125 L16.6704545,22.6 C16.6704758,22.8209048 16.8434443,22.999978 17.0568182,23 L21.5,23 L25.9431818,23 C26.1565557,22.999978 26.3295242,22.8209048 26.3295455,22.6 L26.3295455,21.6125 C28.5279014,20.22712 29.9999998,17.9377 30,15.4 C30.0000002,15.11768 29.8345373,14.88647 29.649858,14.73125 C29.4651786,14.57605 29.2423285,14.460054 28.9676847,14.35 C28.4183971,14.129892 27.6731076,13.949316 26.7762784,13.8 C26.7662207,13.7995947 26.7561515,13.7995947 26.7460938,13.8 C26.4720764,13.4499642 26.0622574,13.2195066 25.5990767,13.20625 C25.3985273,12.842942 25.0692624,12.588288 24.6875,12.46875 C24.4725149,11.842088 23.9053118,11.4 23.2386364,11.4 C23.1215344,11.4 23.0247478,11.433776 22.9247159,11.4625 C22.8381741,11.26673 22.7137202,11.09277 22.5564631,10.9625 C22.2666971,10.72246 21.8932987,10.6 21.5,10.6 C21.1067013,10.6 20.7333029,10.72246 20.4435369,10.9625 C20.2862798,11.09277 20.1618259,11.26673 20.0752841,11.4625 C19.9752522,11.433776 19.8784656,11.4 19.7613636,11.4 C19.3804041,11.4 18.9758755,11.518814 18.6143466,11.73125 C18.5080918,11.7936858 18.4034413,11.8680764 18.3064631,11.95 L17.2379261,7.89375 C17.2360633,7.88744948 17.2340504,7.88119757 17.2318892,7.875 C17.1168442,7.496006 16.8151412,7.29071 16.5316051,7.16875 C16.2480691,7.04679 15.9542442,6.999998 15.7045455,7 Z M15.7045455,7.8 C15.8412086,7.799998 16.0625531,7.834328 16.2297585,7.90625 C16.396964,7.978172 16.4815801,8.073278 16.4953835,8.11875 L18.1495028,14.4125 C17.9405663,14.4316526 17.7276994,14.4861798 17.515625,14.58125 L15.2940341,8.45625 C15.2944205,8.45725 15.311349,8.242242 15.4268466,8.0625 C15.5423434,7.882758 15.7227901,7.8 15.7045455,7.8 Z M21.5,11.4 C21.7348766,11.4 21.9407729,11.477542 22.0735085,11.5875 C22.2062441,11.697458 22.2727273,11.822146 22.2727273,12 C22.273664,12.1424203 22.3476693,12.2735847 22.4670354,12.3443852 C22.5864014,12.4151857 22.7331251,12.4149437 22.8522727,12.34375 C22.9930507,12.259438 23.1715302,12.2 23.2386364,12.2 C23.6352603,12.2 23.9611903,12.480864 24.0174006,12.85625 C24.0415347,13.0289572 24.1710187,13.1655405 24.337358,13.19375 C24.4701612,13.2150646 24.5971419,13.2734358 24.7056108,13.35 C24.3069625,13.5405634 24.0216071,13.8850364 23.8604403,14.21875 C23.782908,14.3476497 23.7825521,14.5108829 23.8595216,14.6401436 C23.9364911,14.7694044 24.0775144,14.8424047 24.2235794,14.8285971 C24.3696444,14.8147895 24.4955657,14.7165548 24.5486506,14.575 C24.6927122,14.276704 24.9460708,14.0108604 25.3394886,14 C25.3475359,14.0002605 25.3555891,14.0002605 25.3636364,14 C25.3757036,14.0005862 25.3877907,14.0005862 25.399858,14 L25.5568182,14 C25.9534498,14 26.2793694,14.280834 26.3355824,14.65625 C26.3597166,14.8289572 26.4892005,14.9655405 26.6555398,14.99375 C26.7935889,15.01589 26.9551957,15.13349 27.0841619,15.33125 C27.1896108,15.4929642 27.265838,15.6988634 27.2894176,15.88125 C27.2008752,15.901193 27.1174466,15.9185824 27.0237926,15.9375 C25.779041,16.1889514 24.0868931,16.3595558 22.2002841,16.39375 C22.2659711,16.2586154 22.3373236,16.1310092 22.4176136,16.0375 C22.5612285,15.87024 22.6912877,15.8 22.8522727,15.8 C22.991609,15.8020396 23.1212124,15.7262493 23.1914555,15.6016504 C23.2616985,15.4770516 23.2616985,15.3229484 23.1914555,15.1983496 C23.1212124,15.0737507 22.991609,14.9979604 22.8522727,15 C22.4337121,15 22.080817,15.22353 21.8380682,15.50625 C21.611946,15.7696242 21.4572908,16.0849704 21.3490767,16.4 C19.2428683,16.39177 17.3404479,16.2130892 15.9762074,15.9375 C15.8825534,15.9185824 15.7991248,15.901193 15.7105824,15.88125 C15.7233635,15.6860016 15.7641339,15.5181582 15.8252841,15.4125 C15.8989364,15.28524 15.9766865,15.22177 16.1512784,15.19375 C16.3176177,15.1655405 16.4471016,15.0289572 16.4712358,14.85625 C16.4690241,14.8711112 16.5496972,14.6612348 16.6523438,14.4875 L16.8455256,15.025 C16.8292506,15.0397666 16.8134014,15.0534266 16.7972301,15.06875 C16.6795802,15.1600992 16.6222156,15.3126697 16.6492504,15.4623262 C16.6762852,15.6119828 16.7830321,15.7327777 16.9246185,15.7739329 C17.0662048,15.8150881 17.218082,15.7694681 17.3164063,15.65625 C17.7268531,15.26735 18.078779,15.17198 18.403054,15.2 C18.727329,15.22802 19.0481584,15.40235 19.3146307,15.65625 C19.4129549,15.7694681 19.5648321,15.8150881 19.7064185,15.7739329 C19.8480048,15.7327777 19.9547517,15.6119828 19.9817865,15.4623262 C20.0088214,15.3126697 19.9514568,15.1600992 19.8338068,15.06875 C19.5928621,14.8391688 19.3068592,14.6448 18.9825994,14.525 C18.9809879,14.5145046 18.978974,14.5040797 18.9765625,14.49375 L18.5720881,12.9625 C18.5847885,12.9283919 18.5929133,12.8926425 18.5962358,12.85625 C18.6109331,12.758104 18.7498078,12.575134 18.9946733,12.43125 C19.2395388,12.287366 19.5630538,12.2 19.7613636,12.2 C19.8284698,12.2 20.0069493,12.259438 20.1477273,12.34375 C20.2668749,12.4149437 20.4135986,12.4151857 20.5329646,12.3443852 C20.6523307,12.2735847 20.726336,12.1424203 20.7272727,12 C20.7272727,11.822146 20.7937559,11.697458 20.9264915,11.5875 C21.0592271,11.477542 21.2651234,11.4 21.5,11.4 Z M21.0774148,13.00625 C20.7311325,13.0192588 20.3689774,13.1915446 20.0632102,13.525 C19.9504838,13.6238655 19.9020757,13.7806231 19.9384964,13.928855 C19.9749171,14.0770869 20.0897908,14.1908442 20.2344459,14.2219283 C20.379101,14.2530123 20.5282147,14.1959817 20.618608,14.075 C20.8503151,13.82231 21.0085588,13.785948 21.149858,13.8 C21.2911571,13.81406 21.4542401,13.912274 21.6026278,14.075 C21.6975265,14.1799468 21.8392962,14.2245069 21.9745337,14.191895 C22.1097712,14.1592831 22.2179307,14.0544536 22.2582695,13.916895 C22.2986084,13.7793363 22.2649981,13.6299468 22.1700994,13.525 C21.9332013,13.265212 21.6121191,13.045016 21.2223011,13.00625 C21.1735739,13.0014042 21.1268836,13.0043916 21.0774148,13.00625 Z M15.3362926,14.79375 C15.2712066,14.8566836 15.2124886,14.921843 15.1672585,15 C15.0472246,15.2074052 14.9856475,15.4431298 14.9559659,15.68125 C14.7241688,15.6082764 14.520355,15.5307678 14.3643466,15.45625 C14.1907619,15.3733468 14.0731787,15.2884488 14.0142045,15.23125 C14.0946451,15.1873324 14.1958331,15.13959 14.3100142,15.09375 C14.5723456,14.988421 14.9253827,14.8885768 15.3362926,14.79375 Z M27.6637074,14.8 C28.070143,14.8942916 28.4218461,14.988719 28.6839489,15.09375 C28.798666,15.13971 28.8980996,15.19211 28.9797585,15.2375 C28.919201,15.2944778 28.8047959,15.3754684 28.6356534,15.45625 C28.4779438,15.5315804 28.273088,15.6137812 28.0379972,15.6875 C27.9915265,15.4016796 27.8879105,15.1232394 27.7301136,14.88125 C27.7108038,14.8516378 27.6851819,14.8279972 27.6637074,14.8 Z M13.8149858,16.06875 C13.8854039,16.1089664 13.9591773,16.143436 14.0383523,16.18125 C14.487765,16.39591 15.0904958,16.57031 15.8252841,16.71875 C17.2948605,17.01561 19.2924555,17.2 21.5,17.2 C23.7075445,17.2 25.7051395,17.01561 27.1747159,16.71875 C27.9095042,16.57031 28.512235,16.39591 28.9616477,16.18125 C29.0408227,16.143436 29.1145961,16.1089664 29.1850142,16.06875 C28.9483985,18.0937496 27.6508923,19.922709 25.75,21.05 C25.6293851,21.1220968 25.5555796,21.2558151 25.5568182,21.4 L25.5568182,22.2 L21.5,22.2 L17.4431818,22.2 L17.4431818,21.4 C17.4444204,21.2558151 17.3706149,21.1220968 17.25,21.05 C15.3491077,19.922709 14.0516015,18.0937496 13.8149858,16.06875 Z" id="Shape"></path>
            </g>
        </g>
    </g>
</svg>