
<svg width="21px" height="14px" viewBox="0 0 21 14" version="1.1" xmlns="http://www.w3.org/2000/svg" xmlns:xlink="http://www.w3.org/1999/xlink">
    <!-- Generator: Sketch 49.3 (51167) - http://www.bohemiancoding.com/sketch -->
    <desc>Created with Sketch.</desc>
    <defs></defs>
    <g id="Page-1" stroke="none" stroke-width="1" fill="none" fill-rule="evenodd">
        <g id="Wallet-Collapsed" transform="translate(-606.000000, -309.000000)" fill="#FF7E76" fill-rule="nonzero">
            <g id="Group-8" transform="translate(593.000000, 301.000000)">
                <g id="Group-7" transform="translate(13.000000, 8.000000)">
                    <path d="M20.3660535,0 L16.6130901,0 C16.2629711,9.75966531e-16 15.9791436,0.307479816 15.9791436,0.686775391 C15.9791436,1.06607097 16.2629711,1.37355078 16.6130901,1.37355078 L18.8319029,1.37355078 L15.8117817,4.64809585 C14.013083,3.20848817 11.4939923,3.51495377 10.0348397,5.35090263 C8.57568715,7.18685149 8.67015921,9.93111257 10.2514892,11.64422 C11.8328192,13.3573275 14.3659832,13.4596723 16.0607053,11.8789236 C17.7554273,10.298175 18.0383186,7.56916011 16.70945,5.6205698 L19.732107,2.34602474 L19.732107,4.75523281 C19.732107,5.13452838 20.0159345,5.4420082 20.3660535,5.4420082 C20.7161725,5.4420082 21,5.13452838 21,4.75523281 L21,0.686775391 C21,0.307479816 20.7161725,9.75966531e-16 20.3660535,0 Z M15.4009844,10.6697425 C14.2274373,11.940847 12.3249381,11.9407184 11.1515375,10.6694551 C9.978137,9.39819179 9.978137,7.33715094 11.1515375,6.06588766 C12.3249381,4.79462437 14.2274373,4.7944957 15.4009844,6.06560025 C16.5719449,7.33818161 16.5719449,9.39716112 15.4009844,10.6697425 Z" id="Shape"></path>
                    <path d="M1.15248183,13.7783775 L2.51610639,12.3071341 L3.95123186,13.8555213 C4.20647539,14.069065 4.56933229,14.0432836 4.79641608,13.7954701 C5.02349986,13.5476565 5.04325884,13.1558941 4.84243967,12.8829578 L3.42008222,11.342836 L5.20760505,9.41423985 C5.7767744,9.86567389 6.44107274,10.1572874 7.14068331,10.2628222 L7.23261305,10.2628222 C7.58519219,10.2894505 7.89102159,10.0026578 7.91570213,9.62225272 C7.94038267,9.24184763 7.67456834,8.91188183 7.32198919,8.88525347 C6.02013174,8.6781748 4.9915562,7.58707384 4.77758916,6.18618352 C4.56362212,4.7852932 5.21332071,3.3958017 6.38475662,2.74898118 C7.55619253,2.10216067 8.98078558,2.34631047 9.90879009,3.35293758 C10.0702698,3.52716148 10.3056316,3.59520365 10.5262171,3.53143328 C10.7468025,3.46766291 10.9190993,3.28176823 10.978205,3.04377396 C11.0373107,2.8057797 10.9742456,2.55184284 10.8127659,2.37761894 C9.22299876,0.642799443 6.65956259,0.532653193 4.94696175,2.12557587 C3.23436091,3.71849854 2.95767968,6.47029209 4.31384363,8.42239039 L2.5263208,10.3509866 L1.09119533,8.80259935 C0.841569297,8.53327257 0.436845549,8.53327258 0.187219525,8.80259937 C-0.0624064999,9.07192617 -0.0624065094,9.50859118 0.187219503,9.77791799 L1.61468416,11.342836 L0.245952396,12.805814 C0.0844726613,12.9800379 0.0214076439,13.2339747 0.0805133263,13.471969 C0.139619009,13.7099633 0.311915831,13.895858 0.532501247,13.9596283 C0.753086663,14.0233987 0.988448499,13.9553565 1.14992823,13.7811326 L1.15248183,13.7783775 Z" id="Shape"></path>
                </g>
            </g>
        </g>
    </g>
</svg>