
<svg width="34px" height="34px" viewBox="0 0 34 34" version="1.1" xmlns="http://www.w3.org/2000/svg" xmlns:xlink="http://www.w3.org/1999/xlink">
    <!-- Generator: Sketch 49.3 (51167) - http://www.bohemiancoding.com/sketch -->
    <desc>Created with Sketch.</desc>
    <defs></defs>
    <g id="Page-1" stroke="none" stroke-width="1" fill="none" fill-rule="evenodd">
        <g id="Wallet-Collapsed" transform="translate(-355.000000, -368.000000)">
            <g id="Group-3" transform="translate(356.000000, 369.000000)">
                <path d="M10.7045455,8 C10.2636317,7.999996 9.98347886,8.30348 9.78089489,8.61875 C9.57831091,8.93402 9.41968043,9.316462 9.56960227,9.7375 L11.3263494,14.59375 C11.270057,14.65843 11.2172597,14.7344906 11.1633523,14.8125 C10.2887944,14.9597328 9.5676805,15.1350604 9.03231534,15.35 C8.75820359,15.460052 8.52803279,15.57539 8.34410511,15.73125 C8.16017744,15.88713 8.00000012,16.11964 8,16.4 C8,18.9377 9.47209858,21.22712 11.6704545,22.6125 L11.6704545,23.6 C11.6704758,23.8209048 11.8434443,23.999978 12.0568182,24 L16.5,24 L20.9431818,24 C21.1565557,23.999978 21.3295242,23.8209048 21.3295455,23.6 L21.3295455,22.6125 C23.5279014,21.22712 24.9999998,18.9377 25,16.4 C25.0000002,16.11768 24.8345373,15.88647 24.649858,15.73125 C24.4651786,15.57605 24.2423285,15.460054 23.9676847,15.35 C23.4183971,15.129892 22.6731076,14.949316 21.7762784,14.8 C21.7662207,14.7995947 21.7561515,14.7995947 21.7460938,14.8 C21.4720764,14.4499642 21.0622574,14.2195066 20.5990767,14.20625 C20.3985273,13.842942 20.0692624,13.588288 19.6875,13.46875 C19.4725149,12.842088 18.9053118,12.4 18.2386364,12.4 C18.1215344,12.4 18.0247478,12.433776 17.9247159,12.4625 C17.8381741,12.26673 17.7137202,12.09277 17.5564631,11.9625 C17.2666971,11.72246 16.8932987,11.6 16.5,11.6 C16.1067013,11.6 15.7333029,11.72246 15.4435369,11.9625 C15.2862798,12.09277 15.1618259,12.26673 15.0752841,12.4625 C14.9752522,12.433776 14.8784656,12.4 14.7613636,12.4 C14.3804041,12.4 13.9758755,12.518814 13.6143466,12.73125 C13.5080918,12.7936858 13.4034413,12.8680764 13.3064631,12.95 L12.2379261,8.89375 C12.2360633,8.88744948 12.2340504,8.88119757 12.2318892,8.875 C12.1168442,8.496006 11.8151412,8.29071 11.5316051,8.16875 C11.2480691,8.04679 10.9542442,7.999998 10.7045455,8 Z M10.7045455,8.8 C10.8412086,8.799998 11.0625531,8.834328 11.2297585,8.90625 C11.396964,8.978172 11.4815801,9.073278 11.4953835,9.11875 L13.1495028,15.4125 C12.9405663,15.4316526 12.7276994,15.4861798 12.515625,15.58125 L10.2940341,9.45625 C10.2944205,9.45725 10.311349,9.242242 10.4268466,9.0625 C10.5423434,8.882758 10.7227901,8.8 10.7045455,8.8 Z M16.5,12.4 C16.7348766,12.4 16.9407729,12.477542 17.0735085,12.5875 C17.2062441,12.697458 17.2727273,12.822146 17.2727273,13 C17.273664,13.1424203 17.3476693,13.2735847 17.4670354,13.3443852 C17.5864014,13.4151857 17.7331251,13.4149437 17.8522727,13.34375 C17.9930507,13.259438 18.1715302,13.2 18.2386364,13.2 C18.6352603,13.2 18.9611903,13.480864 19.0174006,13.85625 C19.0415347,14.0289572 19.1710187,14.1655405 19.337358,14.19375 C19.4701612,14.2150646 19.5971419,14.2734358 19.7056108,14.35 C19.3069625,14.5405634 19.0216071,14.8850364 18.8604403,15.21875 C18.782908,15.3476497 18.7825521,15.5108829 18.8595216,15.6401436 C18.9364911,15.7694044 19.0775144,15.8424047 19.2235794,15.8285971 C19.3696444,15.8147895 19.4955657,15.7165548 19.5486506,15.575 C19.6927122,15.276704 19.9460708,15.0108604 20.3394886,15 C20.3475359,15.0002605 20.3555891,15.0002605 20.3636364,15 C20.3757036,15.0005862 20.3877907,15.0005862 20.399858,15 L20.5568182,15 C20.9534498,15 21.2793694,15.280834 21.3355824,15.65625 C21.3597166,15.8289572 21.4892005,15.9655405 21.6555398,15.99375 C21.7935889,16.01589 21.9551957,16.13349 22.0841619,16.33125 C22.1896108,16.4929642 22.265838,16.6988634 22.2894176,16.88125 C22.2008752,16.901193 22.1174466,16.9185824 22.0237926,16.9375 C20.779041,17.1889514 19.0868931,17.3595558 17.2002841,17.39375 C17.2659711,17.2586154 17.3373236,17.1310092 17.4176136,17.0375 C17.5612285,16.87024 17.6912877,16.8 17.8522727,16.8 C17.991609,16.8020396 18.1212124,16.7262493 18.1914555,16.6016504 C18.2616985,16.4770516 18.2616985,16.3229484 18.1914555,16.1983496 C18.1212124,16.0737507 17.991609,15.9979604 17.8522727,16 C17.4337121,16 17.080817,16.22353 16.8380682,16.50625 C16.611946,16.7696242 16.4572908,17.0849704 16.3490767,17.4 C14.2428683,17.39177 12.3404479,17.2130892 10.9762074,16.9375 C10.8825534,16.9185824 10.7991248,16.901193 10.7105824,16.88125 C10.7233635,16.6860016 10.7641339,16.5181582 10.8252841,16.4125 C10.8989364,16.28524 10.9766865,16.22177 11.1512784,16.19375 C11.3176177,16.1655405 11.4471016,16.0289572 11.4712358,15.85625 C11.4690241,15.8711112 11.5496972,15.6612348 11.6523438,15.4875 L11.8455256,16.025 C11.8292506,16.0397666 11.8134014,16.0534266 11.7972301,16.06875 C11.6795802,16.1600992 11.6222156,16.3126697 11.6492504,16.4623262 C11.6762852,16.6119828 11.7830321,16.7327777 11.9246185,16.7739329 C12.0662048,16.8150881 12.218082,16.7694681 12.3164063,16.65625 C12.7268531,16.26735 13.078779,16.17198 13.403054,16.2 C13.727329,16.22802 14.0481584,16.40235 14.3146307,16.65625 C14.4129549,16.7694681 14.5648321,16.8150881 14.7064185,16.7739329 C14.8480048,16.7327777 14.9547517,16.6119828 14.9817865,16.4623262 C15.0088214,16.3126697 14.9514568,16.1600992 14.8338068,16.06875 C14.5928621,15.8391688 14.3068592,15.6448 13.9825994,15.525 C13.9809879,15.5145046 13.978974,15.5040797 13.9765625,15.49375 L13.5720881,13.9625 C13.5847885,13.9283919 13.5929133,13.8926425 13.5962358,13.85625 C13.6109331,13.758104 13.7498078,13.575134 13.9946733,13.43125 C14.2395388,13.287366 14.5630538,13.2 14.7613636,13.2 C14.8284698,13.2 15.0069493,13.259438 15.1477273,13.34375 C15.2668749,13.4149437 15.4135986,13.4151857 15.5329646,13.3443852 C15.6523307,13.2735847 15.726336,13.1424203 15.7272727,13 C15.7272727,12.822146 15.7937559,12.697458 15.9264915,12.5875 C16.0592271,12.477542 16.2651234,12.4 16.5,12.4 Z M16.0774148,14.00625 C15.7311325,14.0192588 15.3689774,14.1915446 15.0632102,14.525 C14.9504838,14.6238655 14.9020757,14.7806231 14.9384964,14.928855 C14.9749171,15.0770869 15.0897908,15.1908442 15.2344459,15.2219283 C15.379101,15.2530123 15.5282147,15.1959817 15.618608,15.075 C15.8503151,14.82231 16.0085588,14.785948 16.149858,14.8 C16.2911571,14.81406 16.4542401,14.912274 16.6026278,15.075 C16.6975265,15.1799468 16.8392962,15.2245069 16.9745337,15.191895 C17.1097712,15.1592831 17.2179307,15.0544536 17.2582695,14.916895 C17.2986084,14.7793363 17.2649981,14.6299468 17.1700994,14.525 C16.9332013,14.265212 16.6121191,14.045016 16.2223011,14.00625 C16.1735739,14.0014042 16.1268836,14.0043916 16.0774148,14.00625 Z M10.3362926,15.79375 C10.2712066,15.8566836 10.2124886,15.921843 10.1672585,16 C10.0472246,16.2074052 9.98564752,16.4431298 9.95596591,16.68125 C9.72416878,16.6082764 9.52035501,16.5307678 9.36434659,16.45625 C9.19076191,16.3733468 9.0731787,16.2884488 9.01420455,16.23125 C9.09464507,16.1873324 9.19583313,16.13959 9.3100142,16.09375 C9.57234565,15.988421 9.92538272,15.8885768 10.3362926,15.79375 Z M22.6637074,15.8 C23.070143,15.8942916 23.4218461,15.988719 23.6839489,16.09375 C23.798666,16.13971 23.8980996,16.19211 23.9797585,16.2375 C23.919201,16.2944778 23.8047959,16.3754684 23.6356534,16.45625 C23.4779438,16.5315804 23.273088,16.6137812 23.0379972,16.6875 C22.9915265,16.4016796 22.8879105,16.1232394 22.7301136,15.88125 C22.7108038,15.8516378 22.6851819,15.8279972 22.6637074,15.8 Z M8.8149858,17.06875 C8.88540385,17.1089664 8.95917728,17.143436 9.03835227,17.18125 C9.48776505,17.39591 10.0904958,17.57031 10.8252841,17.71875 C12.2948605,18.01561 14.2924555,18.2 16.5,18.2 C18.7075445,18.2 20.7051395,18.01561 22.1747159,17.71875 C22.9095042,17.57031 23.512235,17.39591 23.9616477,17.18125 C24.0408227,17.143436 24.1145961,17.1089664 24.1850142,17.06875 C23.9483985,19.0937496 22.6508923,20.922709 20.75,22.05 C20.6293851,22.1220968 20.5555796,22.2558151 20.5568182,22.4 L20.5568182,23.2 L16.5,23.2 L12.4431818,23.2 L12.4431818,22.4 C12.4444204,22.2558151 12.3706149,22.1220968 12.25,22.05 C10.3491077,20.922709 9.05160145,19.0937496 8.8149858,17.06875 Z" id="Shape" fill="#FF7E76" fill-rule="nonzero"></path>
                <circle id="Oval-3" stroke="#FF7E76" cx="16" cy="16" r="16"></circle>
            </g>
        </g>
    </g>
</svg>